<svg xmlns="http://www.w3.org/2000/svg" width="15" height="13" viewBox="0 0 15 13"><g><g><path fill="#fff" d="M15.002 1.823c-.56.24-1.16.404-1.792.477A3.051 3.051 0 0 0 14.582.625a6.367 6.367 0 0 1-1.98.735 3.158 3.158 0 0 0-2.277-.956c-1.723 0-3.12 1.355-3.12 3.027 0 .237.028.468.081.69A8.944 8.944 0 0 1 .856.957 2.95 2.95 0 0 0 .434 2.48c0 1.051.55 1.978 1.388 2.52a3.185 3.185 0 0 1-1.413-.378v.038c0 1.466 1.075 2.69 2.502 2.969a3.223 3.223 0 0 1-1.409.052c.397 1.203 1.55 2.077 2.914 2.102a6.379 6.379 0 0 1-4.618 1.253c1.38.86 3.02 1.36 4.782 1.36 5.737 0 8.874-4.612 8.874-8.613 0-.13-.002-.263-.008-.392a6.229 6.229 0 0 0 1.556-1.567z"/></g></g></svg>