<svg xmlns="http://www.w3.org/2000/svg" width="35" height="50" viewBox="0 0 35 50"><g><g><path fill="#fff" d="M7.44 16.188c0-5.418 4.486-9.81 10.02-9.81 5.532 0 10.018 4.392 10.018 9.81S22.992 26 17.46 26 7.441 21.606 7.441 16.19zM.429 17.415c0 4.103 5.081 12.754 5.081 12.754L17.46 49.79 28.723 30.17s5.768-8.712 5.768-12.754C34.491 8.203 26.866.736 17.46.736 8.053.736.428 8.203.428 17.415z"/><path fill="#fff" d="M7.44 16.188c0-5.418 4.486-9.81 10.02-9.81 5.532 0 10.018 4.392 10.018 9.81S22.992 26 17.46 26 7.441 21.606 7.441 16.19zM.429 17.415c0 4.103 5.081 12.754 5.081 12.754L17.46 49.79 28.723 30.17s5.768-8.712 5.768-12.754C34.491 8.203 26.866.736 17.46.736 8.053.736.428 8.203.428 17.415z"/></g></g></svg>