<svg xmlns="http://www.w3.org/2000/svg" width="42" height="56" viewBox="0 0 42 56"><g><g><path fill="#fff" d="M13.291 18.3c-2.166 1.26-1.126 4.096.162 6.87.02.132 6.251 10.457 6.306 10.491 3.222 4.297 4.967 6.274 7.037 5.073l8.764 14.585c-2.48 1.506-14.848 2.432-27.845-19.816C-4.622 14.393 1.97 5.077 4.299 3.359zm27.606 33.95c.003.005-4.19 2.436-4.19 2.436L27.92 40.062l4.192-2.442c.909-.523 2.077-.242 2.618.659l6.846 11.367-.002.01c.515.865.293 2.03-.668 2.59zM18.629 15.201c-.002.006-4.192 2.434-4.192 2.434L5.455 2.687 9.647.244c.906-.522 2.076-.244 2.618.66.003.003 7.043 11.696 7.043 11.696l-.004.012a1.86 1.86 0 0 1-.673 2.582z"/><path fill="#fff" d="M13.291 18.3c-2.166 1.26-1.126 4.096.162 6.87.02.132 6.251 10.457 6.306 10.491 3.222 4.297 4.967 6.274 7.037 5.073l8.764 14.585c-2.48 1.506-14.848 2.432-27.845-19.816C-4.622 14.393 1.97 5.077 4.299 3.359zm27.606 33.95c.003.005-4.19 2.436-4.19 2.436L27.92 40.062l4.192-2.442c.909-.523 2.077-.242 2.618.659l6.846 11.367-.002.01c.515.865.293 2.03-.668 2.59zM18.629 15.201c-.002.006-4.192 2.434-4.192 2.434L5.455 2.687 9.647.244c.906-.522 2.076-.244 2.618.66.003.003 7.043 11.696 7.043 11.696l-.004.012a1.86 1.86 0 0 1-.673 2.582z"/></g></g></svg>